<svg width="24" height="24" viewBox="0 0 24 24" fill="none" xmlns="http://www.w3.org/2000/svg">
<g clip-path="url(#clip0_2_24)">
<path fill-rule="evenodd" clip-rule="evenodd" d="M-4 0H28V24H-4V0Z" fill="#229E45"/>
<path fill-rule="evenodd" clip-rule="evenodd" d="M12.07 21.8L27.145 12.015L11.98 2.20001L-3.14499 12.035L12.07 21.8Z" fill="#F8E509"/>
<path fill-rule="evenodd" clip-rule="evenodd" d="M18.64 12C18.64 15.515 15.785 18.365 12.26 18.365C11.0003 18.363 9.76956 17.9876 8.72323 17.2862C7.67689 16.5849 6.86199 15.589 6.38154 14.4246C5.90109 13.2602 5.77666 11.9794 6.02398 10.7443C6.27131 9.50917 6.87927 8.37509 7.77103 7.48543C8.66279 6.59577 9.7983 5.99048 11.034 5.74606C12.2697 5.50165 13.5502 5.62909 14.7135 6.11228C15.8768 6.59547 16.8707 7.41271 17.5696 8.46069C18.2685 9.50867 18.641 10.7403 18.64 12V12Z" fill="#2B49A3"/>
<path fill-rule="evenodd" clip-rule="evenodd" d="M10.165 15.815L9.96499 15.7L9.76499 15.8L9.81 15.575L9.65 15.405L9.875 15.38L9.985 15.18L10.08 15.39L10.3 15.43L10.135 15.58L10.165 15.815ZM14.435 16.895L14.24 16.78L14.04 16.88L14.08 16.655L13.925 16.49L14.15 16.465L14.255 16.26L14.355 16.47L14.575 16.51L14.405 16.665L14.435 16.895ZM12.595 15.165L12.425 15.065L12.25 15.155L12.29 14.96L12.15 14.815L12.35 14.795L12.44 14.615L12.52 14.8L12.715 14.835L12.565 14.97L12.595 15.165ZM16.915 14.545L16.745 14.445L16.57 14.535L16.61 14.34L16.475 14.2L16.67 14.18L16.76 14.005L16.84 14.185L17.03 14.22L16.885 14.35L16.915 14.545ZM12.52 13.25L12.32 13.14L12.12 13.24L12.16 13.01L12.005 12.845L12.23 12.82L12.335 12.615L12.435 12.825L12.655 12.865L12.485 13.025L12.52 13.25ZM7.255 11.275L7.055 11.165L6.855 11.265L6.905 11.035L6.74 10.87L6.97 10.845L7.07 10.64L7.17 10.85L7.39 10.89L7.225 11.045L7.255 11.275ZM7.89 13.905L7.69 13.79L7.49 13.89L7.535 13.665L7.375 13.5L7.6 13.47L7.705 13.27L7.805 13.48L8.025 13.52L7.86 13.675L7.89 13.905ZM14.46 10.31L14.28 10.21L14.1 10.3L14.14 10.1L14 9.95L14.2 9.925L14.295 9.745L14.38 9.935L14.58 9.97L14.43 10.105L14.46 10.31ZM14.095 12.02L13.96 11.94L13.815 12.01L13.845 11.85L13.735 11.735L13.895 11.715L13.97 11.575L14.035 11.725L14.185 11.75L14.075 11.86L14.095 12.02ZM6.965 14.38L6.83 14.305L6.695 14.37L6.725 14.22L6.62 14.11L6.77 14.09L6.84 13.955L6.905 14.095L7.055 14.125L6.94 14.225L6.965 14.38ZM16.95 14.99L16.84 14.935L16.73 14.985L16.755 14.87L16.67 14.79L16.79 14.775L16.85 14.675L16.9 14.775L17.025 14.8L16.93 14.875" fill="#FFFFEF"/>
<path fill-rule="evenodd" clip-rule="evenodd" d="M6.965 14.38L6.83 14.305L6.695 14.37L6.725 14.22L6.62 14.11L6.77 14.09L6.84 13.955L6.905 14.095L7.055 14.125L6.94 14.225" fill="#FFFFEF"/>
<path fill-rule="evenodd" clip-rule="evenodd" d="M6.965 14.38L6.83 14.305L6.695 14.37L6.725 14.22L6.62 14.11L6.77 14.09L6.84 13.955L6.905 14.095L7.055 14.125L6.94 14.225L6.965 14.38ZM9.055 14.375L8.925 14.305L8.79 14.37L8.82 14.22L8.715 14.11L8.865 14.09L8.935 13.955L9 14.095L9.15 14.12L9.035 14.225L9.055 14.375ZM8.795 15.075L8.665 15L8.53 15.07L8.56 14.92L8.455 14.805L8.605 14.785L8.675 14.65L8.74 14.79L8.89 14.82L8.775 14.92L8.795 15.075ZM13.145 13.81L13.015 13.73L12.875 13.8L12.905 13.65L12.805 13.535L12.955 13.52L13.025 13.385L13.085 13.525L13.235 13.55L13.125 13.655L13.145 13.81ZM11.87 13.805L11.735 13.73L11.6 13.8L11.63 13.65L11.53 13.535L11.68 13.52L11.75 13.38L11.81 13.525L11.96 13.55L11.85 13.655L11.87 13.805ZM8.41 13.365L8.325 13.315L8.24 13.355L8.26 13.26L8.195 13.19L8.29 13.18L8.33 13.095L8.37 13.185L8.465 13.2L8.395 13.265L8.41 13.365ZM16.785 15.535L16.655 15.46L16.52 15.53L16.55 15.38L16.445 15.265L16.595 15.245L16.665 15.11L16.73 15.25L16.88 15.28L16.765 15.38L16.785 15.535ZM15.725 15.68L15.615 15.61L15.5 15.67L15.525 15.54L15.44 15.45L15.565 15.435L15.625 15.32L15.675 15.44L15.8 15.46L15.705 15.55L15.725 15.68ZM16.225 15.665L16.125 15.605L16.02 15.655L16.04 15.54L15.96 15.455L16.075 15.44L16.13 15.34L16.18 15.44L16.295 15.465L16.21 15.545L16.225 15.665ZM17.665 14.405L17.565 14.355L17.465 14.405L17.49 14.29L17.41 14.205L17.525 14.19L17.575 14.09L17.625 14.195L17.73 14.215L17.65 14.295L17.665 14.405ZM15.71 16.385L15.585 16.315L15.45 16.375L15.48 16.235L15.38 16.135L15.53 16.12L15.595 15.995L15.655 16.125L15.805 16.15L15.69 16.245L15.71 16.385ZM15.72 16.955L15.6 16.885L15.48 16.95L15.51 16.81L15.415 16.71L15.55 16.69L15.61 16.565L15.665 16.695L15.8 16.72L15.7 16.82L15.72 16.955ZM14.75 15.665L14.655 15.605L14.555 15.655L14.575 15.545L14.5 15.46L14.61 15.45L14.66 15.35L14.71 15.45L14.82 15.47L14.74 15.55L14.75 15.665ZM13.85 15.665L13.75 15.605L13.65 15.655L13.675 15.545L13.595 15.46L13.71 15.45L13.76 15.35L13.81 15.45L13.915 15.47L13.835 15.55L13.85 15.665ZM12.315 14.32L12.215 14.265L12.115 14.315L12.14 14.2L12.06 14.12L12.17 14.105L12.22 14.005L12.27 14.105L12.38 14.13L12.3 14.205L12.315 14.32ZM12.485 17.055L12.405 17.01L12.315 17.055L12.335 16.955L12.27 16.885L12.365 16.875L12.41 16.79L12.45 16.88L12.545 16.895L12.475 16.96L12.485 17.055ZM10.165 12.63L9.965 12.515L9.765 12.615L9.81 12.39L9.65 12.225L9.875 12.195L9.98501 11.995L10.08 12.205L10.3 12.245L10.135 12.4" fill="#FFFFEF"/>
<path fill-rule="evenodd" clip-rule="evenodd" d="M18.22 14.29C18.3439 13.9686 18.4409 13.6375 18.51 13.3C15.12 10.325 11.345 8.8 6.57499 9.115C6.40199 9.44976 6.25974 9.79952 6.14999 10.16C11.8 9.62 15.95 12.12 18.22 14.29Z" fill="white"/>
<path d="M16.7 12.62L16.815 12.685C16.7978 12.7189 16.7926 12.7577 16.8 12.795C16.8117 12.8312 16.8367 12.8615 16.87 12.88C16.905 12.905 16.94 12.92 16.97 12.915C17 12.915 17.02 12.9 17.035 12.88C17.0437 12.8667 17.0473 12.8507 17.045 12.835C17.0409 12.8165 17.0323 12.7993 17.02 12.785C17.01 12.77 16.985 12.735 16.945 12.695C16.9039 12.6525 16.8731 12.6012 16.855 12.545C16.8425 12.5024 16.8458 12.4568 16.8641 12.4164C16.8825 12.376 16.9147 12.3436 16.955 12.325C16.9914 12.3098 17.0316 12.3063 17.07 12.315C17.117 12.3258 17.1613 12.3462 17.2 12.375C17.27 12.425 17.315 12.475 17.33 12.535C17.3369 12.563 17.3378 12.5923 17.3326 12.6207C17.3275 12.6491 17.3164 12.6761 17.3 12.7L17.18 12.625C17.195 12.595 17.2 12.565 17.19 12.54C17.185 12.515 17.165 12.49 17.13 12.47C17.1043 12.4493 17.0729 12.4371 17.04 12.435C17.0309 12.4347 17.022 12.4368 17.014 12.4412C17.0061 12.4456 16.9995 12.4521 16.995 12.46C16.985 12.475 16.985 12.49 16.99 12.51C16.995 12.53 17.02 12.57 17.07 12.62C17.12 12.67 17.15 12.715 17.17 12.745C17.1879 12.7778 17.1959 12.815 17.1933 12.8522C17.1906 12.8894 17.1773 12.9251 17.155 12.955C17.1316 12.989 17.0985 13.0151 17.06 13.03C17.0225 13.0472 16.9806 13.0525 16.94 13.045C16.895 13.035 16.85 13.015 16.8 12.98C16.725 12.93 16.68 12.875 16.665 12.815C16.6487 12.7469 16.6595 12.6752 16.695 12.615L16.7 12.62ZM16.12 12.24L16.245 12.305C16.2295 12.3395 16.226 12.3782 16.235 12.415C16.2478 12.4493 16.2727 12.4778 16.305 12.495C16.345 12.52 16.375 12.53 16.405 12.525C16.435 12.525 16.455 12.51 16.47 12.485C16.4776 12.4731 16.4811 12.459 16.48 12.445C16.48 12.43 16.47 12.41 16.455 12.395C16.4294 12.3641 16.4027 12.334 16.375 12.305C16.32 12.25 16.285 12.205 16.275 12.165C16.2668 12.1393 16.2644 12.112 16.2678 12.0853C16.2713 12.0585 16.2806 12.0328 16.295 12.01C16.314 11.9791 16.3419 11.9547 16.375 11.94C16.4094 11.9241 16.4477 11.9189 16.485 11.925C16.5312 11.9328 16.5755 11.9498 16.615 11.975C16.69 12.025 16.735 12.075 16.75 12.13C16.7591 12.1581 16.762 12.1878 16.7586 12.2172C16.7551 12.2465 16.7454 12.2748 16.73 12.3L16.605 12.23C16.62 12.195 16.625 12.17 16.615 12.145C16.605 12.12 16.585 12.095 16.55 12.075C16.5223 12.0551 16.4891 12.0446 16.455 12.045C16.4468 12.0455 16.4388 12.0481 16.4319 12.0525C16.4249 12.0568 16.4191 12.0628 16.415 12.07C16.405 12.085 16.405 12.1 16.41 12.12C16.415 12.14 16.445 12.18 16.495 12.23C16.545 12.28 16.58 12.32 16.595 12.35C16.615 12.3813 16.6257 12.4178 16.6257 12.455C16.6257 12.4922 16.615 12.5286 16.595 12.56C16.5735 12.5949 16.5422 12.6227 16.505 12.64C16.4675 12.6572 16.4256 12.6625 16.385 12.655C16.3335 12.6463 16.2843 12.6276 16.24 12.6C16.1754 12.5655 16.1256 12.5086 16.1 12.44C16.0807 12.3732 16.0878 12.3016 16.12 12.24V12.24ZM15.41 12.05L15.775 11.45L16.215 11.725L16.155 11.825L15.835 11.625L15.755 11.76L16.055 11.945L15.99 12.045L15.69 11.86L15.59 12.025L15.925 12.225L15.865 12.325L15.415 12.05H15.41ZM14.375 11.2L14.43 11.1L14.7 11.235L14.575 11.485C14.535 11.495 14.485 11.5 14.425 11.495C14.3674 11.4886 14.3114 11.4717 14.26 11.445C14.1995 11.4155 14.1478 11.3707 14.11 11.315C14.0756 11.2632 14.0581 11.2021 14.06 11.14C14.0625 11.0753 14.0796 11.0121 14.11 10.955C14.14 10.8949 14.1848 10.8433 14.24 10.805C14.2929 10.7684 14.3558 10.7492 14.42 10.75C14.47 10.75 14.52 10.765 14.58 10.8C14.66 10.835 14.71 10.885 14.735 10.94C14.761 10.9946 14.7663 11.0568 14.75 11.115L14.615 11.075C14.6233 11.0415 14.6197 11.0062 14.605 10.975C14.59 10.945 14.565 10.925 14.525 10.905C14.5017 10.8917 14.4758 10.8835 14.4491 10.8809C14.4224 10.8783 14.3954 10.8814 14.37 10.89C14.32 10.905 14.275 10.95 14.24 11.02C14.205 11.09 14.19 11.155 14.205 11.21C14.2119 11.2361 14.2244 11.2603 14.2417 11.2811C14.259 11.3018 14.2806 11.3185 14.305 11.33C14.33 11.345 14.36 11.355 14.39 11.355C14.4198 11.3595 14.4502 11.3595 14.48 11.355L14.52 11.275L14.375 11.2V11.2ZM9.865 10.085L9.965 9.38499L10.175 9.41999L10.23 9.90999L10.425 9.45999L10.635 9.48999L10.535 10.18L10.4 10.16L10.485 9.61499L10.265 10.14L10.13 10.12L10.075 9.55499L9.995 10.105L9.865 10.085V10.085ZM9.16 9.99999L9.225 9.29999L9.74 9.34999L9.73 9.46999L9.355 9.43499L9.34 9.58499L9.69 9.61999L9.675 9.73999L9.325 9.70499L9.31 9.89499L9.7 9.92999L9.69 10.05L9.16 9.99999V9.99999Z" fill="#309E3A"/>
<path d="M6.82501 9.56499C6.82501 9.48999 6.84001 9.43499 6.86001 9.38499C6.87754 9.34943 6.90124 9.31726 6.93001 9.28999C6.95566 9.26412 6.98627 9.24371 7.02001 9.22999C7.07001 9.21499 7.12001 9.20499 7.17001 9.20499C7.27501 9.20499 7.35501 9.24499 7.42001 9.30499C7.45095 9.34321 7.47396 9.38721 7.48769 9.43443C7.50143 9.48165 7.50562 9.53113 7.50001 9.57999C7.50001 9.68999 7.46501 9.77999 7.40001 9.84499C7.36661 9.87586 7.32709 9.89938 7.28403 9.91402C7.24097 9.92866 7.19531 9.9341 7.15001 9.92999C7.10532 9.93044 7.061 9.92181 7.01975 9.90462C6.97849 9.88743 6.94116 9.86204 6.91001 9.82999C6.84779 9.75635 6.81724 9.66108 6.82501 9.56499V9.56499Z" fill="#309E3A"/>
<path d="M6.97 9.56498C6.97 9.63998 6.985 9.69998 7.02 9.74498C7.055 9.78498 7.1 9.80998 7.16 9.80998C7.18596 9.81179 7.21199 9.8078 7.23621 9.79829C7.26043 9.78877 7.28222 9.77398 7.3 9.75498C7.335 9.71498 7.35 9.65498 7.355 9.56998C7.355 9.48998 7.345 9.42998 7.305 9.38998C7.28872 9.36983 7.26816 9.35354 7.24481 9.3423C7.22146 9.33106 7.19591 9.32515 7.17 9.32498C7.1437 9.32414 7.11753 9.32908 7.09334 9.33944C7.06915 9.34981 7.04753 9.36535 7.03 9.38498C6.99 9.42498 6.975 9.48498 6.97 9.56498V9.56498Z" fill="#F7FFFF"/>
<path d="M7.64999 9.92501L7.65999 9.22501H7.95999C8.03499 9.22501 8.08499 9.23501 8.11999 9.25001C8.15499 9.26001 8.17999 9.28501 8.19999 9.31501C8.21999 9.34501 8.22999 9.38501 8.22999 9.43001C8.23038 9.47811 8.21252 9.52456 8.17999 9.56001C8.14303 9.59463 8.09546 9.61577 8.04499 9.62001L8.11999 9.68001C8.13999 9.70001 8.16499 9.74001 8.19499 9.79501L8.27999 9.93501H8.10999L8.00999 9.77501L7.93999 9.67501C7.92787 9.66125 7.91236 9.6509 7.89499 9.64501C7.87225 9.63837 7.84868 9.63501 7.82499 9.63501H7.79499V9.92501H7.64999V9.92501Z" fill="#309E3A"/>
<path d="M7.79999 9.525H7.89999C7.96999 9.525 8.01499 9.525 8.02999 9.515C8.04499 9.515 8.05999 9.5 8.06999 9.49C8.07999 9.48 8.08499 9.455 8.08499 9.44C8.08499 9.41 8.07999 9.39 8.06499 9.38C8.05499 9.365 8.03499 9.355 8.01499 9.35H7.91499L7.79999 9.345V9.52V9.525Z" fill="white"/>
<path d="M8.45001 9.26001L8.71001 9.27501C8.76501 9.27501 8.81001 9.28001 8.84001 9.29001C8.87892 9.30413 8.91342 9.32828 8.94 9.36001C8.96881 9.39497 8.98932 9.43599 9 9.48001C9.015 9.52501 9.02 9.58001 9.015 9.64501C9.01496 9.69604 9.00651 9.74672 8.99 9.79501C8.97 9.84501 8.94001 9.88501 8.90501 9.91501C8.87587 9.93901 8.84169 9.95611 8.80501 9.96501C8.77501 9.97501 8.73001 9.97501 8.68001 9.97501L8.41501 9.96001L8.45001 9.26001V9.26001Z" fill="#309E3A"/>
<path d="M8.58503 9.38501L8.56003 9.85001H8.75002C8.77502 9.85001 8.79502 9.84001 8.81002 9.82501C8.82502 9.81001 8.84001 9.79001 8.85001 9.76001C8.86001 9.73001 8.87001 9.68501 8.87001 9.63001L8.86501 9.50501C8.85787 9.47865 8.8441 9.45455 8.82502 9.43501C8.80841 9.41831 8.78773 9.40624 8.76502 9.40001C8.72721 9.39159 8.68873 9.38657 8.65002 9.38501H8.58503V9.38501Z" fill="white"/>
<path d="M11.88 10.51L12.045 9.82999L12.265 9.87999L12.425 9.92999C12.46 9.94999 12.49 9.97999 12.505 10.025C12.525 10.065 12.525 10.11 12.515 10.165C12.505 10.205 12.49 10.24 12.465 10.265C12.4467 10.2869 12.4237 10.3046 12.3978 10.3167C12.3719 10.3288 12.3436 10.335 12.315 10.335C12.28 10.335 12.23 10.325 12.165 10.31L12.08 10.285L12.02 10.545L11.88 10.51V10.51Z" fill="#309E3A"/>
<path d="M12.15 9.97998L12.11 10.17L12.185 10.19C12.235 10.2 12.275 10.21 12.295 10.205C12.3145 10.2023 12.3326 10.1936 12.3469 10.1802C12.3613 10.1668 12.3711 10.1492 12.375 10.13C12.375 10.105 12.375 10.085 12.365 10.065C12.354 10.0447 12.3364 10.0288 12.315 10.02L12.22 9.99498L12.155 9.97998H12.15Z" fill="white"/>
<path d="M12.53 10.705L12.765 10.045L13.04 10.145C13.115 10.17 13.16 10.195 13.19 10.215C13.215 10.24 13.235 10.265 13.24 10.305C13.245 10.345 13.25 10.38 13.24 10.42C13.22 10.47 13.19 10.505 13.15 10.53C13.11 10.55 13.06 10.555 13 10.545C13.02 10.57 13.04 10.595 13.05 10.625L13.09 10.76L13.12 10.915L12.965 10.86L12.915 10.68C12.9059 10.6393 12.8942 10.5992 12.88 10.56C12.8734 10.5445 12.8631 10.5307 12.85 10.52C12.84 10.505 12.82 10.495 12.785 10.485L12.76 10.475L12.66 10.755L12.53 10.705V10.705Z" fill="#309E3A"/>
<path d="M12.8 10.37L12.895 10.405C12.96 10.43 13 10.44 13.02 10.44C13.035 10.44 13.05 10.44 13.065 10.425C13.08 10.415 13.09 10.4 13.095 10.38C13.105 10.36 13.105 10.34 13.095 10.32C13.0876 10.3006 13.0734 10.2846 13.055 10.275L12.955 10.24L12.855 10.205L12.795 10.37H12.8Z" fill="white"/>
<path d="M13.35 10.68C13.3672 10.6215 13.3962 10.567 13.435 10.52C13.4603 10.4898 13.4908 10.4644 13.525 10.445C13.556 10.4275 13.5899 10.4156 13.625 10.41C13.675 10.41 13.725 10.41 13.78 10.43C13.8247 10.4411 13.8665 10.4615 13.9027 10.4899C13.9389 10.5184 13.9687 10.5542 13.99 10.595C14.03 10.675 14.03 10.77 14 10.88C13.9753 10.9745 13.9142 11.0554 13.83 11.105C13.755 11.15 13.665 11.155 13.57 11.125C13.5255 11.1137 13.4838 11.0931 13.4476 11.0647C13.4114 11.0363 13.3816 11.0006 13.36 10.96C13.34 10.9163 13.3288 10.8691 13.3271 10.821C13.3254 10.773 13.3332 10.725 13.35 10.68V10.68Z" fill="#309E3A"/>
<path d="M13.49 10.72C13.47 10.795 13.465 10.86 13.49 10.91C13.515 10.96 13.55 10.99 13.605 11.01C13.655 11.025 13.705 11.02 13.755 10.99C13.805 10.965 13.835 10.91 13.86 10.83C13.885 10.755 13.885 10.695 13.86 10.645C13.8501 10.6213 13.8352 10.6 13.8162 10.5827C13.7972 10.5655 13.7746 10.5526 13.75 10.545C13.7254 10.5365 13.6993 10.5335 13.6734 10.536C13.6475 10.5386 13.6225 10.5468 13.6 10.56C13.55 10.59 13.515 10.64 13.49 10.72V10.72Z" fill="white"/>
<path d="M14.715 11.655L15.035 11.035L15.3 11.17C15.3499 11.194 15.3956 11.2261 15.435 11.265C15.46 11.29 15.475 11.32 15.475 11.36C15.475 11.4 15.475 11.435 15.455 11.47C15.4358 11.515 15.4 11.5508 15.355 11.57C15.305 11.58 15.255 11.58 15.2 11.56C15.22 11.59 15.23 11.62 15.24 11.645C15.25 11.675 15.255 11.72 15.26 11.785L15.27 11.945L15.12 11.87L15.1 11.685C15.0976 11.6431 15.0926 11.6013 15.085 11.56C15.0816 11.5413 15.0729 11.524 15.06 11.51L15 11.475L14.975 11.46L14.84 11.72L14.715 11.655V11.655Z" fill="#309E3A"/>
<path d="M15.025 11.36L15.12 11.41C15.18 11.44 15.22 11.46 15.235 11.46C15.25 11.46 15.27 11.46 15.285 11.45C15.3 11.445 15.31 11.43 15.32 11.41C15.33 11.39 15.335 11.37 15.33 11.35C15.3238 11.3301 15.3116 11.3126 15.295 11.3C15.2657 11.282 15.2357 11.2654 15.205 11.25L15.105 11.2L15.025 11.36V11.36Z" fill="white"/>
<path d="M17.305 12.935C17.3374 12.8836 17.3799 12.8394 17.43 12.805C17.4637 12.7835 17.5009 12.7682 17.54 12.76C17.5763 12.7526 17.6137 12.7526 17.65 12.76C17.7 12.77 17.745 12.79 17.79 12.82C17.8289 12.8443 17.8623 12.8763 17.8882 12.9142C17.914 12.9521 17.9316 12.9949 17.94 13.04C17.955 13.125 17.93 13.22 17.87 13.315C17.8198 13.3976 17.7389 13.457 17.645 13.48C17.6002 13.4897 17.5539 13.4898 17.5091 13.4803C17.4643 13.4708 17.422 13.452 17.385 13.425C17.3461 13.4008 17.3127 13.3687 17.2868 13.3308C17.261 13.2929 17.2434 13.2501 17.235 13.205C17.22 13.115 17.245 13.025 17.305 12.935Z" fill="#309E3A"/>
<path d="M17.43 13.015C17.38 13.08 17.365 13.14 17.375 13.195C17.3787 13.2203 17.3877 13.2446 17.4015 13.2661C17.4153 13.2877 17.4336 13.3061 17.455 13.32C17.505 13.355 17.555 13.365 17.605 13.35C17.655 13.335 17.705 13.3 17.75 13.23C17.795 13.16 17.815 13.1 17.805 13.05C17.8 13 17.77 12.955 17.725 12.92C17.68 12.885 17.625 12.88 17.575 12.895C17.525 12.905 17.475 12.945 17.425 13.015H17.43Z" fill="white"/>
<path d="M11.09 10.225L11.205 9.73499L11.565 9.81999L11.55 9.89999L11.285 9.83999L11.26 9.94999L11.505 10.005L11.485 10.09L11.24 10.03L11.21 10.165L11.485 10.23L11.465 10.31L11.09 10.225V10.225Z" fill="#309E3A"/>
</g>
<defs>
<clipPath id="clip0_2_24">
<rect width="24" height="24" rx="12" fill="white"/>
</clipPath>
</defs>
</svg>
